<svg width="390" height="84" viewBox="0 0 390 84" fill="none" xmlns="http://www.w3.org/2000/svg">
<path d="M41.8154 83.3427C64.9094 83.3427 83.6308 64.6858 83.6308 41.6714C83.6308 18.6569 64.9094 0 41.8154 0C18.7214 0 0 18.6569 0 41.6714C0 64.6858 18.7214 83.3427 41.8154 83.3427Z" fill="#F0F9F4"/>
<path d="M41.8217 2.19248C63.7145 2.19248 81.4627 19.8793 81.4627 41.6969C81.4627 63.5145 63.7147 81.2014 41.8217 81.2014C19.9286 81.2014 2.18048 63.5147 2.18048 41.6969C2.18048 19.8791 19.9285 2.19248 41.8217 2.19248Z" fill="url(#paint0_linear)"/>
<path d="M6.41164 55.7763C4.5805 37.5394 9.89619 20.1453 15.1187 14.2389C16.7136 37.7075 21.4785 46.0607 26.6126 54.5266C28.4314 49.7457 40.1494 19.8017 53.9781 6.96082C81.8755 16.0778 85.8445 50.5055 68.949 66.9712C68.6496 58.0274 64.4806 42.623 57.8092 34.4141C45.6871 42.5574 36.4073 55.0147 28.968 66.9975C17.322 54.4302 12.2753 40.1168 12.3238 40.1837C12.3173 40.2013 9.79013 44.4743 6.41164 55.7763Z" fill="#F0F9F4"/>
<path d="M114.32 28.04V30.36H102V40.8H112.4V43.12H102V56H99.2V28.04H114.32ZM131.127 49.36H118.407L115.967 56H113.007L123.207 28.4H126.367L136.527 56H133.567L131.127 49.36ZM130.287 47.04L124.767 31.92L119.247 47.04H130.287ZM135.74 42C135.74 39.2533 136.34 36.8 137.54 34.64C138.74 32.4533 140.38 30.76 142.46 29.56C144.54 28.3333 146.86 27.72 149.42 27.72C152.54 27.72 155.207 28.4667 157.42 29.96C159.66 31.4267 161.287 33.5067 162.3 36.2H159.02C158.22 34.3067 156.994 32.8267 155.34 31.76C153.714 30.6933 151.74 30.16 149.42 30.16C147.367 30.16 145.514 30.64 143.86 31.6C142.234 32.56 140.954 33.9467 140.02 35.76C139.087 37.5467 138.62 39.6267 138.62 42C138.62 44.3733 139.087 46.4533 140.02 48.24C140.954 50.0267 142.234 51.4 143.86 52.36C145.514 53.32 147.367 53.8 149.42 53.8C151.74 53.8 153.714 53.28 155.34 52.24C156.994 51.1733 158.22 49.7067 159.02 47.84H162.3C161.287 50.5067 159.66 52.5733 157.42 54.04C155.18 55.5067 152.514 56.24 149.42 56.24C146.86 56.24 144.54 55.64 142.46 54.44C140.38 53.2133 138.74 51.52 137.54 49.36C136.34 47.2 135.74 44.7467 135.74 42ZM166.56 28.04V45.64C166.56 48.4133 167.213 50.4667 168.52 51.8C169.853 53.1333 171.666 53.8 173.96 53.8C176.253 53.8 178.04 53.1467 179.32 51.84C180.626 50.5067 181.28 48.44 181.28 45.64V28.04H184.08V45.6C184.08 49.1467 183.133 51.8133 181.24 53.6C179.373 55.3867 176.933 56.28 173.92 56.28C170.906 56.28 168.453 55.3867 166.56 53.6C164.693 51.8133 163.76 49.1467 163.76 45.6V28.04H166.56ZM189.125 53.72H199.165V56H186.325V28.04H189.125V53.72ZM207.441 28.04C210.534 28.04 213.188 28.6 215.401 29.72C217.614 30.84 219.308 32.4533 220.481 34.56C221.654 36.6667 222.241 39.1733 222.241 42.08C222.241 44.96 221.654 47.4533 220.481 49.56C219.308 51.64 217.614 53.24 215.401 54.36C213.188 55.4533 210.534 56 207.441 56H199.161V28.04H207.441ZM207.441 53.68C211.334 53.68 214.294 52.6667 216.321 50.64C218.374 48.5867 219.401 45.7333 219.401 42.08C219.401 38.4 218.374 35.5333 216.321 33.48C214.294 31.4 211.334 30.36 207.441 30.36H201.961V53.68H207.441ZM239.603 49.36H226.883L224.443 56H221.483L231.683 28.4H234.843L245.003 56H242.043L239.603 49.36ZM238.763 47.04L233.243 31.92L227.723 47.04H238.763ZM253.777 28.04C256.87 28.04 259.524 28.6 261.737 29.72C263.95 30.84 265.644 32.4533 266.817 34.56C267.99 36.6667 268.577 39.1733 268.577 42.08C268.577 44.96 267.99 47.4533 266.817 49.56C265.644 51.64 263.95 53.24 261.737 54.36C259.524 55.4533 256.87 56 253.777 56H245.497V28.04H253.777ZM253.777 53.68C257.67 53.68 260.63 52.6667 262.657 50.64C264.71 48.5867 265.737 45.7333 265.737 42.08C265.737 38.4 264.71 35.5333 262.657 33.48C260.63 31.4 257.67 30.36 253.777 30.36H248.297V53.68H253.777ZM272.539 30.32V40.76H283.139V43.08H272.539V53.68H284.339V56H269.739V28H284.339V30.32H272.539ZM322.833 28.08V56H317.233V37.84L309.753 56H305.513L297.993 37.84V56H292.393V28.08H298.753L307.633 48.84L316.513 28.08H322.833ZM329.969 32.6V39.6H339.369V44.04H329.969V51.44H340.569V56H324.369V28.04H340.569V32.6H329.969ZM360.658 28.08V32.6H353.218V56H347.618V32.6H340.178V28.08H360.658ZM377.864 50.68H366.744L364.904 56H359.024L369.064 28.04H375.584L385.624 56H379.704L377.864 50.68ZM376.344 46.2L372.304 34.52L368.264 46.2H376.344Z" fill="#101B4A"/>
<defs>
<linearGradient id="paint0_linear" x1="41.8216" y1="2.19248" x2="41.8216" y2="81" gradientUnits="userSpaceOnUse">
<stop stop-color="#3C65BE"/>
<stop offset="1" stop-color="#0B133D"/>
</linearGradient>
</defs>
</svg>
